<?xml version="1.0" encoding="UTF-8"?>
<svg xmlns="http://www.w3.org/2000/svg"
    xmlns:xlink="http://www.w3.org/1999/xlink" width="24px" height="24px" viewBox="0 0 24 24" version="1.1">
    <style>
    path {
      fill: black;
    }
    @media (prefers-color-scheme: dark) {
      path {
        fill: white;
      }
    }
    </style>
    <g id="surface1">
        <path d="M 9.597656 0.253906 C 4.824219 1.277344 1.207031 4.910156 0.246094 9.632812 C -1.464844 17.972656 6.027344 25.464844 14.367188 23.753906 C 22.722656 22.039062 26.726562 12.339844 21.953125 5.328125 C 19.21875 1.308594 14.222656 -0.753906 9.597656 0.253906 Z M 13.390625 5.824219 C 14.253906 6.578125 13.839844 8.210938 12.71875 8.417969 C 11.550781 8.625 10.734375 7.824219 10.941406 6.671875 C 11.148438 5.519531 12.492188 5.054688 13.390625 5.824219 Z M 13.949219 12.835938 C 13.933594 14.804688 13.871094 16.644531 13.824219 16.933594 C 13.679688 17.796875 11.996094 19.367188 11.195312 19.367188 C 11.117188 19.367188 10.828125 19.0625 10.558594 18.710938 L 10.078125 18.054688 L 10.539062 17.621094 C 11.148438 17.046875 11.230469 16.582031 11.164062 13.605469 L 11.117188 11.121094 L 10.636719 11.121094 C 10.171875 11.105469 10.15625 11.089844 10.109375 10.289062 L 10.0625 9.457031 L 11.148438 9.394531 C 11.742188 9.363281 12.636719 9.328125 13.117188 9.3125 L 14 9.28125 Z M 13.949219 12.835938 "/>
    </g>
</svg>
